<svg xmlns="http://www.w3.org/2000/svg" viewBox="0 0 120 84.24">
  <defs>
    <style>
      .a {
        fill: #bbc2c8;
      }
    </style>
  </defs>
  <title>No Data</title>
  <path class="a" d="M120,71.22l-.17-36.82a4.56,4.56,0,0,0-1.13-2.3L93.56,1.36A2.73,2.73,0,0,0,91.41.31H28.57a2.72,2.72,0,0,0-2.15,1.05L1.15,32.56A2.71,2.71,0,0,0,.42,34.4L.26,70.54v.7a14.8,14.8,0,0,0,1.88,8.58,8.2,8.2,0,0,0,7.52,4.41H110.58a8.23,8.23,0,0,0,7.53-4.41A14.91,14.91,0,0,0,120,71.22ZM29.9,5.77H90.07l21,25.92H82.71a2.73,2.73,0,0,0-2.65,3.37c.41,1.69,1.12,6.79-.46,10.13-1.45,3-5.58,5.07-10.47,5.15h-8.8l-.21,0-.21,0H51.16c-4.59-.08-8.55-2.23-10.1-5.49-1.93-4-.87-9.87-.86-9.93a2.73,2.73,0,0,0-2.68-3.24H8.89ZM113.45,77c-.77,1.25-1.28,1.81-2.88,1.81H9.65c-1.6,0-2.1-.55-2.87-1.81a9.74,9.74,0,0,1-1.08-5.62l.16-34.21H34.49A21.66,21.66,0,0,0,36.13,47.2c2.47,5.19,8.19,8.48,15,8.6h8.8l.21,0,.21,0h8.84c7.11-.12,13-3.29,15.35-8.27,1.63-3.43,1.64-7.55,1.37-10.38h28.48l.14,33.43v.76A9.79,9.79,0,0,1,113.45,77Z"/>
</svg>
