<svg xmlns="http://www.w3.org/2000/svg" width="17" height="17" viewBox="0 0 17 17">
  <metadata><?xpacket begin="﻿" id="W5M0MpCehiHzreSzNTczkc9d"?>
<x:xmpmeta xmlns:x="adobe:ns:meta/" x:xmptk="Adobe XMP Core 5.6-c138 79.159824, 2016/09/14-01:09:01        ">
   <rdf:RDF xmlns:rdf="http://www.w3.org/1999/02/22-rdf-syntax-ns#">
      <rdf:Description rdf:about=""/>
   </rdf:RDF>
</x:xmpmeta>
                                                                                                    
                                                                                                    
                                                                                                    
                                                                                                    
                                                                                                    
                                                                                                    
                                                                                                    
                                                                                                    
                                                                                                    
                                                                                                    
                                                                                                    
                                                                                                    
                                                                                                    
                                                                                                    
                                                                                                    
                                                                                                    
                                                                                                    
                                                                                                    
                                                                                                    
                                                                                                    
                           
<?xpacket end="w"?></metadata>
<defs>
    <style>
      .cls-1 {
        fill: #72848c;
        fill-rule: evenodd;
      }
    </style>
  </defs>
  <path id="see_all" data-name="see all" class="cls-1" d="M985,1153H973a1,1,0,0,1-1-1v-7h-2v-1h2v-7a1,1,0,0,1,1-1h12a2,2,0,0,1,2,2v13A2,2,0,0,1,985,1153Zm-12-12h-1v3h1v-3Zm0,4h-1v3h1v-3Zm13-8H973v7h7v1h-7v7h13v-15Zm-7.993,4.79,0.742-.79,3.244,3.5-3.244,3.5-0.742-.79,2.512-2.71Z" transform="translate(-970 -1136)"/>
</svg>
