<?xml version="1.0" encoding="utf-8"?>
<!-- Generator: Adobe Illustrator 19.2.0, SVG Export Plug-In . SVG Version: 6.00 Build 0)  -->
<svg version="1.1" xmlns="http://www.w3.org/2000/svg" xmlns:xlink="http://www.w3.org/1999/xlink" x="0px" y="0px"
	 viewBox="0 0 25.6 19.6" style="enable-background:new 0 0 25.6 19.6;" xml:space="preserve">
<style type="text/css">
	.st0{display:none;}
	.st1{display:inline;fill:none;}
	.st2{fill-rule:evenodd;clip-rule:evenodd;fill:none;stroke:#01ADD1;stroke-width:1.5;stroke-miterlimit:10;}
	.st3{fill:none;stroke:#01ADD1;stroke-width:1.5;stroke-miterlimit:10;}
	.st4{fill-rule:evenodd;clip-rule:evenodd;fill:none;stroke:#01ADD1;stroke-width:1.4;stroke-miterlimit:10;}
	.st5{fill:none;stroke:#01ADD1;stroke-width:1.4;stroke-miterlimit:10;}
	.st6{fill-rule:evenodd;clip-rule:evenodd;fill:none;stroke:#004B68;stroke-width:1.4;stroke-miterlimit:10;}
	.st7{fill:none;stroke:#004B68;stroke-width:1.4;stroke-miterlimit:10;}
	.st8{fill-rule:evenodd;clip-rule:evenodd;fill:none;stroke:#004B68;stroke-width:1.5;stroke-miterlimit:10;}
	.st9{fill:none;stroke:#004B68;stroke-width:1.5;stroke-miterlimit:10;}
</style>
<g id="Layer_2" class="st0">
	
		<image style="display:inline;overflow:visible;" width="62" height="53" xlink:href="2AF9B32.jpg"  transform="matrix(1 0 0 1 -48.6667 -5.2292)">
	</image>
</g>
<g id="Layer_1">
</g>
<g id="Layer_3">
	<g>
		<path class="st4" d="M19.7,2.8v8.1"/>
		<path class="st4" d="M15.6,7.8l3.7,3.3c0.1,0.1,0.3,0.1,0.4,0l4.4-3.3"/>
		<path class="st5" d="M15.7,5.6h-8L4.4,17.1c-0.1,0.2,0.1,0.4,0.3,0.4h17.4c0.1,0,0.3-0.1,0.3-0.2l1-3.5"/>
		<path class="st5" d="M17.2,3.8h-5c-0.1,0-0.1,0-0.2-0.1L8.4,2H2.8C2.7,2,2.5,2.2,2.5,2.4L3,16.7"/>
	</g>
</g>
</svg>
